<svg width="40" height="60" viewBox="0 0 40 60" fill="none" xmlns="http://www.w3.org/2000/svg">
<path d="M7.096 49.556C7.08 49.692 7.064 49.856 7.048 50.048C7.04 50.232 7.032 50.396 7.024 50.54C6.992 51.764 6.884 52.836 6.7 53.756C6.516 54.668 6.26 55.468 5.932 56.156C5.612 56.836 5.22 57.432 4.756 57.944C4.3 58.456 3.776 58.916 3.184 59.324L2.308 58.616C2.5 58.512 2.708 58.38 2.932 58.22C3.156 58.06 3.36 57.896 3.544 57.728C3.92 57.392 4.256 57.004 4.552 56.564C4.856 56.124 5.116 55.62 5.332 55.052C5.556 54.484 5.728 53.832 5.848 53.096C5.976 52.352 6.044 51.504 6.052 50.552C6.052 50.464 6.048 50.36 6.04 50.24C6.032 50.12 6.02 50 6.004 49.88C5.996 49.76 5.984 49.652 5.968 49.556H7.096ZM11.26 52.052C11.244 52.156 11.228 52.26 11.212 52.364C11.204 52.468 11.2 52.56 11.2 52.64C11.192 52.864 11.176 53.172 11.152 53.564C11.136 53.956 11.108 54.384 11.068 54.848C11.036 55.304 10.992 55.764 10.936 56.228C10.888 56.692 10.824 57.12 10.744 57.512C10.664 57.896 10.572 58.204 10.468 58.436C10.348 58.684 10.184 58.868 9.976 58.988C9.776 59.108 9.512 59.168 9.184 59.168C8.88 59.168 8.56 59.156 8.224 59.132C7.888 59.116 7.564 59.1 7.252 59.084L7.132 58.088C7.46 58.128 7.776 58.16 8.08 58.184C8.392 58.208 8.672 58.22 8.92 58.22C9.096 58.22 9.24 58.192 9.352 58.136C9.464 58.08 9.552 57.976 9.616 57.824C9.712 57.64 9.792 57.388 9.856 57.068C9.92 56.748 9.976 56.388 10.024 55.988C10.072 55.588 10.112 55.184 10.144 54.776C10.176 54.368 10.196 53.98 10.204 53.612C10.22 53.244 10.228 52.932 10.228 52.676H3.904C3.664 52.676 3.428 52.68 3.196 52.688C2.964 52.688 2.74 52.7 2.524 52.724V51.704C2.732 51.728 2.956 51.748 3.196 51.764C3.436 51.772 3.668 51.776 3.892 51.776H9.82C9.98 51.776 10.12 51.772 10.24 51.764C10.368 51.748 10.484 51.732 10.588 51.716L11.26 52.052ZM14.224 53.804C14.344 53.812 14.492 53.824 14.668 53.84C14.844 53.848 15.036 53.856 15.244 53.864C15.46 53.864 15.676 53.864 15.892 53.864C16.02 53.864 16.216 53.864 16.48 53.864C16.752 53.864 17.068 53.864 17.428 53.864C17.788 53.864 18.168 53.864 18.568 53.864C18.976 53.864 19.38 53.864 19.78 53.864C20.188 53.864 20.572 53.864 20.932 53.864C21.3 53.864 21.616 53.864 21.88 53.864C22.144 53.864 22.34 53.864 22.468 53.864C22.772 53.864 23.032 53.856 23.248 53.84C23.464 53.824 23.636 53.812 23.764 53.804V54.98C23.644 54.972 23.464 54.96 23.224 54.944C22.992 54.928 22.744 54.92 22.48 54.92C22.352 54.92 22.152 54.92 21.88 54.92C21.608 54.92 21.292 54.92 20.932 54.92C20.58 54.92 20.2 54.92 19.792 54.92C19.384 54.92 18.976 54.92 18.568 54.92C18.168 54.92 17.788 54.92 17.428 54.92C17.076 54.92 16.764 54.92 16.492 54.92C16.22 54.92 16.02 54.92 15.892 54.92C15.564 54.92 15.252 54.928 14.956 54.944C14.66 54.952 14.416 54.964 14.224 54.98V53.804ZM29.044 57.944C29.044 57.832 29.044 57.608 29.044 57.272C29.044 56.928 29.044 56.524 29.044 56.06C29.044 55.588 29.044 55.096 29.044 54.584C29.044 54.064 29.044 53.56 29.044 53.072C29.044 52.584 29.044 52.152 29.044 51.776C29.044 51.4 29.044 51.128 29.044 50.96C29.044 50.792 29.036 50.588 29.02 50.348C29.004 50.108 28.98 49.896 28.948 49.712H30.124C30.108 49.888 30.088 50.096 30.064 50.336C30.048 50.576 30.04 50.784 30.04 50.96C30.04 51.272 30.04 51.648 30.04 52.088C30.04 52.52 30.04 52.984 30.04 53.48C30.04 53.968 30.04 54.456 30.04 54.944C30.048 55.424 30.052 55.876 30.052 56.3C30.052 56.716 30.052 57.072 30.052 57.368C30.052 57.656 30.052 57.848 30.052 57.944C30.052 58.072 30.052 58.22 30.052 58.388C30.06 58.556 30.072 58.728 30.088 58.904C30.104 59.072 30.116 59.224 30.124 59.36H28.96C28.992 59.168 29.012 58.94 29.02 58.676C29.036 58.412 29.044 58.168 29.044 57.944ZM29.836 52.856C30.228 52.976 30.66 53.12 31.132 53.288C31.612 53.448 32.1 53.62 32.596 53.804C33.092 53.988 33.56 54.176 34 54.368C34.448 54.552 34.836 54.728 35.164 54.896L34.756 55.916C34.412 55.724 34.024 55.536 33.592 55.352C33.16 55.16 32.716 54.972 32.26 54.788C31.812 54.604 31.376 54.44 30.952 54.296C30.536 54.144 30.164 54.02 29.836 53.924V52.856Z" fill="#7F5539"/>
<path d="M39.6511 7.93806C39.5121 7.77166 39.3382 7.63783 39.1418 7.546C38.9453 7.45417 38.7311 7.4066 38.5142 7.40664H8.64348L7.73803 2.43308C7.61401 1.75044 7.25434 1.13297 6.72173 0.688339C6.18912 0.243703 5.51735 0.000100275 4.82354 0H1.48132C1.08845 0 0.711668 0.156068 0.433868 0.433871C0.156067 0.711673 0 1.08845 0 1.48133C0 1.8742 0.156067 2.25098 0.433868 2.52878C0.711668 2.80659 1.08845 2.96265 1.48132 2.96265H4.81428L9.54709 28.9396C9.6865 29.71 10.027 30.4299 10.534 31.0264C9.83418 31.6801 9.32906 32.5148 9.07465 33.438C8.82025 34.3612 8.82652 35.3369 9.09275 36.2568C9.35898 37.1766 9.87478 38.0048 10.5829 38.6494C11.2911 39.2941 12.164 39.73 13.1048 39.9088C14.0455 40.0876 15.0175 40.0024 15.9128 39.6626C16.8081 39.3228 17.5918 38.7416 18.1769 37.9836C18.7621 37.2255 19.1259 36.3203 19.228 35.3681C19.3301 34.4159 19.1665 33.4541 18.7553 32.5892H27.1655C26.8341 33.283 26.6626 34.0423 26.6637 34.8112C26.6637 35.8366 26.9678 36.839 27.5375 37.6916C28.1072 38.5442 28.9169 39.2088 29.8643 39.6012C30.8116 39.9936 31.8541 40.0963 32.8598 39.8962C33.8655 39.6962 34.7893 39.2024 35.5144 38.4773C36.2395 37.7522 36.7333 36.8284 36.9333 35.8227C37.1334 34.8169 37.0307 33.7745 36.6383 32.8271C36.2459 31.8797 35.5813 31.07 34.7287 30.5003C33.8761 29.9306 32.8737 29.6265 31.8483 29.6265H13.9188C13.5719 29.6265 13.236 29.5047 12.9697 29.2824C12.7034 29.0601 12.5236 28.7513 12.4616 28.41L11.8746 25.1826H33.3537C34.3944 25.1824 35.4021 24.817 36.201 24.1501C36.9999 23.4831 37.5394 22.5569 37.7254 21.5329L39.977 9.15275C40.0152 8.93877 40.0057 8.71903 39.9494 8.5091C39.8931 8.29918 39.7913 8.10422 39.6511 7.93806ZM16.2945 34.8112C16.2945 35.2507 16.1642 35.6803 15.92 36.0457C15.6759 36.4111 15.3288 36.6959 14.9228 36.864C14.5168 37.0322 14.07 37.0762 13.639 36.9905C13.208 36.9047 12.8121 36.6931 12.5013 36.3824C12.1906 36.0716 11.979 35.6757 11.8932 35.2447C11.8075 34.8137 11.8515 34.3669 12.0197 33.9609C12.1878 33.5549 12.4726 33.2078 12.838 32.9637C13.2035 32.7195 13.633 32.5892 14.0725 32.5892C14.6618 32.5892 15.227 32.8233 15.6437 33.24C16.0604 33.6567 16.2945 34.2219 16.2945 34.8112ZM34.0703 34.8112C34.0703 35.2507 33.94 35.6803 33.6958 36.0457C33.4517 36.4111 33.1046 36.6959 32.6986 36.864C32.2926 37.0322 31.8458 37.0762 31.4148 36.9905C30.9838 36.9047 30.5879 36.6931 30.2771 36.3824C29.9664 36.0716 29.7548 35.6757 29.669 35.2447C29.5833 34.8137 29.6273 34.3669 29.7955 33.9609C29.9637 33.5549 30.2484 33.2078 30.6139 32.9637C30.9793 32.7195 31.4088 32.5892 31.8483 32.5892C32.4376 32.5892 33.0028 32.8233 33.4195 33.24C33.8362 33.6567 34.0703 34.2219 34.0703 34.8112ZM34.8109 21.0034C34.7488 21.3456 34.5681 21.6551 34.3007 21.8775C34.0332 22.1 33.696 22.2212 33.3481 22.2199H11.3358L9.18231 10.3693H36.7385L34.8109 21.0034Z" fill="#7F5539"/>
</svg>
