<svg width="48" height="60" viewBox="0 0 48 60" fill="none" xmlns="http://www.w3.org/2000/svg">
<path d="M1.752 50.78C1.992 50.788 2.196 50.796 2.364 50.804C2.532 50.804 2.684 50.804 2.82 50.804C2.916 50.804 3.092 50.804 3.348 50.804C3.604 50.804 3.912 50.804 4.272 50.804C4.64 50.804 5.032 50.804 5.448 50.804C5.864 50.804 6.276 50.804 6.684 50.804C7.1 50.804 7.488 50.804 7.848 50.804C8.208 50.804 8.512 50.804 8.76 50.804C9.008 50.804 9.176 50.804 9.264 50.804C9.392 50.804 9.552 50.804 9.744 50.804C9.944 50.796 10.136 50.788 10.32 50.78C10.312 50.924 10.304 51.08 10.296 51.248C10.296 51.408 10.296 51.564 10.296 51.716C10.296 51.796 10.296 51.956 10.296 52.196C10.296 52.428 10.296 52.712 10.296 53.048C10.296 53.384 10.296 53.748 10.296 54.14C10.296 54.524 10.296 54.908 10.296 55.292C10.296 55.676 10.296 56.032 10.296 56.36C10.296 56.688 10.296 56.968 10.296 57.2C10.296 57.424 10.296 57.568 10.296 57.632C10.296 57.72 10.296 57.84 10.296 57.992C10.296 58.144 10.296 58.296 10.296 58.448C10.304 58.6 10.308 58.736 10.308 58.856C10.316 58.968 10.32 59.044 10.32 59.084H9.288C9.288 59.036 9.288 58.94 9.288 58.796C9.296 58.644 9.3 58.476 9.3 58.292C9.308 58.1 9.312 57.92 9.312 57.752C9.312 57.696 9.312 57.544 9.312 57.296C9.312 57.048 9.312 56.744 9.312 56.384C9.312 56.016 9.312 55.624 9.312 55.208C9.312 54.784 9.312 54.372 9.312 53.972C9.312 53.564 9.312 53.192 9.312 52.856C9.312 52.52 9.312 52.252 9.312 52.052C9.312 51.852 9.312 51.752 9.312 51.752H2.748C2.748 51.752 2.748 51.852 2.748 52.052C2.748 52.244 2.748 52.508 2.748 52.844C2.748 53.18 2.748 53.552 2.748 53.96C2.748 54.36 2.748 54.768 2.748 55.184C2.748 55.6 2.748 55.992 2.748 56.36C2.748 56.72 2.748 57.024 2.748 57.272C2.748 57.52 2.748 57.68 2.748 57.752C2.748 57.856 2.748 57.976 2.748 58.112C2.748 58.248 2.748 58.384 2.748 58.52C2.756 58.648 2.76 58.764 2.76 58.868C2.768 58.972 2.772 59.044 2.772 59.084H1.74C1.74 59.044 1.74 58.968 1.74 58.856C1.748 58.736 1.752 58.6 1.752 58.448C1.76 58.296 1.764 58.148 1.764 58.004C1.764 57.852 1.764 57.724 1.764 57.62C1.764 57.556 1.764 57.408 1.764 57.176C1.764 56.944 1.764 56.66 1.764 56.324C1.764 55.988 1.764 55.628 1.764 55.244C1.764 54.852 1.764 54.464 1.764 54.08C1.764 53.688 1.764 53.328 1.764 53C1.764 52.664 1.764 52.384 1.764 52.16C1.764 51.928 1.764 51.78 1.764 51.716C1.764 51.572 1.764 51.416 1.764 51.248C1.764 51.08 1.76 50.924 1.752 50.78ZM9.696 57.452V58.388H2.28V57.452H9.696ZM21.18 49.4C21.284 49.536 21.396 49.704 21.516 49.904C21.636 50.096 21.752 50.292 21.864 50.492C21.976 50.692 22.076 50.876 22.164 51.044L21.516 51.332C21.396 51.092 21.244 50.812 21.06 50.492C20.876 50.172 20.704 49.9 20.544 49.676L21.18 49.4ZM22.5 48.92C22.604 49.064 22.716 49.236 22.836 49.436C22.964 49.636 23.088 49.836 23.208 50.036C23.328 50.228 23.428 50.4 23.508 50.552L22.86 50.84C22.732 50.576 22.576 50.292 22.392 49.988C22.208 49.684 22.032 49.42 21.864 49.196L22.5 48.92ZM21.972 51.788C21.924 51.868 21.876 51.972 21.828 52.1C21.78 52.22 21.736 52.328 21.696 52.424C21.592 52.824 21.44 53.264 21.24 53.744C21.048 54.216 20.812 54.696 20.532 55.184C20.252 55.664 19.932 56.124 19.572 56.564C19.028 57.228 18.376 57.832 17.616 58.376C16.856 58.92 15.916 59.404 14.796 59.828L13.92 59.036C14.656 58.82 15.316 58.56 15.9 58.256C16.484 57.944 17.008 57.6 17.472 57.224C17.944 56.848 18.36 56.448 18.72 56.024C19.032 55.656 19.316 55.252 19.572 54.812C19.828 54.372 20.048 53.932 20.232 53.492C20.424 53.044 20.556 52.64 20.628 52.28H16.188L16.572 51.416C16.668 51.416 16.848 51.416 17.112 51.416C17.376 51.416 17.676 51.416 18.012 51.416C18.356 51.416 18.696 51.416 19.032 51.416C19.368 51.416 19.66 51.416 19.908 51.416C20.156 51.416 20.32 51.416 20.4 51.416C20.56 51.416 20.704 51.408 20.832 51.392C20.968 51.376 21.084 51.348 21.18 51.308L21.972 51.788ZM17.952 49.976C17.856 50.136 17.76 50.304 17.664 50.48C17.568 50.656 17.488 50.8 17.424 50.912C17.192 51.352 16.896 51.828 16.536 52.34C16.176 52.844 15.744 53.348 15.24 53.852C14.744 54.348 14.176 54.808 13.536 55.232L12.696 54.62C13.216 54.308 13.68 53.976 14.088 53.624C14.504 53.264 14.864 52.9 15.168 52.532C15.48 52.164 15.744 51.812 15.96 51.476C16.176 51.132 16.348 50.828 16.476 50.564C16.54 50.46 16.608 50.316 16.68 50.132C16.76 49.94 16.816 49.764 16.848 49.604L17.952 49.976ZM25.032 54.668C26.072 54.388 27.04 54.048 27.936 53.648C28.832 53.248 29.612 52.84 30.276 52.424C30.692 52.16 31.096 51.876 31.488 51.572C31.888 51.26 32.264 50.936 32.616 50.6C32.968 50.264 33.28 49.932 33.552 49.604L34.356 50.348C34.02 50.708 33.656 51.06 33.264 51.404C32.872 51.748 32.456 52.08 32.016 52.4C31.584 52.712 31.132 53.016 30.66 53.312C30.22 53.576 29.724 53.848 29.172 54.128C28.62 54.408 28.032 54.672 27.408 54.92C26.784 55.168 26.152 55.396 25.512 55.604L25.032 54.668ZM30.084 52.928L31.116 52.616V58.088C31.116 58.24 31.116 58.4 31.116 58.568C31.124 58.736 31.132 58.892 31.14 59.036C31.156 59.18 31.172 59.292 31.188 59.372H30.012C30.02 59.292 30.028 59.18 30.036 59.036C30.052 58.892 30.064 58.736 30.072 58.568C30.08 58.4 30.084 58.24 30.084 58.088V52.928ZM38.724 50.204C38.94 50.348 39.188 50.528 39.468 50.744C39.748 50.952 40.032 51.176 40.32 51.416C40.616 51.648 40.892 51.876 41.148 52.1C41.404 52.324 41.616 52.52 41.784 52.688L41.028 53.444C40.876 53.292 40.68 53.104 40.44 52.88C40.2 52.656 39.936 52.424 39.648 52.184C39.36 51.936 39.076 51.704 38.796 51.488C38.516 51.264 38.264 51.08 38.04 50.936L38.724 50.204ZM37.692 58.244C38.396 58.14 39.036 57.996 39.612 57.812C40.196 57.628 40.728 57.42 41.208 57.188C41.688 56.956 42.116 56.724 42.492 56.492C43.108 56.108 43.676 55.668 44.196 55.172C44.716 54.668 45.172 54.148 45.564 53.612C45.956 53.076 46.268 52.564 46.5 52.076L47.076 53.096C46.804 53.592 46.468 54.096 46.068 54.608C45.668 55.12 45.216 55.612 44.712 56.084C44.208 56.556 43.652 56.984 43.044 57.368C42.644 57.616 42.204 57.86 41.724 58.1C41.252 58.34 40.732 58.56 40.164 58.76C39.604 58.952 38.992 59.108 38.328 59.228L37.692 58.244Z" fill="#7F5539"/>
<path d="M21.1429 18V12L30.6667 20L21.1429 28V22H4V18H21.1429ZM6.77714 26H10.8229C12.1525 29.4382 14.5785 32.2844 17.6859 34.0519C20.7934 35.8194 24.3892 36.3982 27.8582 35.6895C31.3272 34.9807 34.4539 33.0284 36.7035 30.1665C38.953 27.3045 40.1856 23.7108 40.1905 20C40.1924 16.2853 38.9634 12.6857 36.7141 9.81844C34.4648 6.95122 31.3355 4.99511 27.8628 4.28563C24.3901 3.57614 20.7906 4.15748 17.6815 5.92995C14.5724 7.70243 12.1476 10.5556 10.8229 14H6.77714C9.20381 5.886 16.4229 0 24.9524 0C35.4724 0 44 8.954 44 20C44 31.046 35.4724 40 24.9524 40C16.4229 40 9.20381 34.114 6.77714 26Z" fill="#7F5539"/>
</svg>
