<svg width="62" height="60" viewBox="0 0 62 60" fill="none" xmlns="http://www.w3.org/2000/svg">
<path d="M2.252 50.78C2.492 50.788 2.696 50.796 2.864 50.804C3.032 50.804 3.184 50.804 3.32 50.804C3.416 50.804 3.592 50.804 3.848 50.804C4.104 50.804 4.412 50.804 4.772 50.804C5.14 50.804 5.532 50.804 5.948 50.804C6.364 50.804 6.776 50.804 7.184 50.804C7.6 50.804 7.988 50.804 8.348 50.804C8.708 50.804 9.012 50.804 9.26 50.804C9.508 50.804 9.676 50.804 9.764 50.804C9.892 50.804 10.052 50.804 10.244 50.804C10.444 50.796 10.636 50.788 10.82 50.78C10.812 50.924 10.804 51.08 10.796 51.248C10.796 51.408 10.796 51.564 10.796 51.716C10.796 51.796 10.796 51.956 10.796 52.196C10.796 52.428 10.796 52.712 10.796 53.048C10.796 53.384 10.796 53.748 10.796 54.14C10.796 54.524 10.796 54.908 10.796 55.292C10.796 55.676 10.796 56.032 10.796 56.36C10.796 56.688 10.796 56.968 10.796 57.2C10.796 57.424 10.796 57.568 10.796 57.632C10.796 57.72 10.796 57.84 10.796 57.992C10.796 58.144 10.796 58.296 10.796 58.448C10.804 58.6 10.808 58.736 10.808 58.856C10.816 58.968 10.82 59.044 10.82 59.084H9.788C9.788 59.036 9.788 58.94 9.788 58.796C9.796 58.644 9.8 58.476 9.8 58.292C9.808 58.1 9.812 57.92 9.812 57.752C9.812 57.696 9.812 57.544 9.812 57.296C9.812 57.048 9.812 56.744 9.812 56.384C9.812 56.016 9.812 55.624 9.812 55.208C9.812 54.784 9.812 54.372 9.812 53.972C9.812 53.564 9.812 53.192 9.812 52.856C9.812 52.52 9.812 52.252 9.812 52.052C9.812 51.852 9.812 51.752 9.812 51.752H3.248C3.248 51.752 3.248 51.852 3.248 52.052C3.248 52.244 3.248 52.508 3.248 52.844C3.248 53.18 3.248 53.552 3.248 53.96C3.248 54.36 3.248 54.768 3.248 55.184C3.248 55.6 3.248 55.992 3.248 56.36C3.248 56.72 3.248 57.024 3.248 57.272C3.248 57.52 3.248 57.68 3.248 57.752C3.248 57.856 3.248 57.976 3.248 58.112C3.248 58.248 3.248 58.384 3.248 58.52C3.256 58.648 3.26 58.764 3.26 58.868C3.268 58.972 3.272 59.044 3.272 59.084H2.24C2.24 59.044 2.24 58.968 2.24 58.856C2.248 58.736 2.252 58.6 2.252 58.448C2.26 58.296 2.264 58.148 2.264 58.004C2.264 57.852 2.264 57.724 2.264 57.62C2.264 57.556 2.264 57.408 2.264 57.176C2.264 56.944 2.264 56.66 2.264 56.324C2.264 55.988 2.264 55.628 2.264 55.244C2.264 54.852 2.264 54.464 2.264 54.08C2.264 53.688 2.264 53.328 2.264 53C2.264 52.664 2.264 52.384 2.264 52.16C2.264 51.928 2.264 51.78 2.264 51.716C2.264 51.572 2.264 51.416 2.264 51.248C2.264 51.08 2.26 50.924 2.252 50.78ZM10.196 57.452V58.388H2.78V57.452H10.196ZM21.68 49.4C21.784 49.536 21.896 49.704 22.016 49.904C22.136 50.096 22.252 50.292 22.364 50.492C22.476 50.692 22.576 50.876 22.664 51.044L22.016 51.332C21.896 51.092 21.744 50.812 21.56 50.492C21.376 50.172 21.204 49.9 21.044 49.676L21.68 49.4ZM23 48.92C23.104 49.064 23.216 49.236 23.336 49.436C23.464 49.636 23.588 49.836 23.708 50.036C23.828 50.228 23.928 50.4 24.008 50.552L23.36 50.84C23.232 50.576 23.076 50.292 22.892 49.988C22.708 49.684 22.532 49.42 22.364 49.196L23 48.92ZM22.472 51.788C22.424 51.868 22.376 51.972 22.328 52.1C22.28 52.22 22.236 52.328 22.196 52.424C22.092 52.824 21.94 53.264 21.74 53.744C21.548 54.216 21.312 54.696 21.032 55.184C20.752 55.664 20.432 56.124 20.072 56.564C19.528 57.228 18.876 57.832 18.116 58.376C17.356 58.92 16.416 59.404 15.296 59.828L14.42 59.036C15.156 58.82 15.816 58.56 16.4 58.256C16.984 57.944 17.508 57.6 17.972 57.224C18.444 56.848 18.86 56.448 19.22 56.024C19.532 55.656 19.816 55.252 20.072 54.812C20.328 54.372 20.548 53.932 20.732 53.492C20.924 53.044 21.056 52.64 21.128 52.28H16.688L17.072 51.416C17.168 51.416 17.348 51.416 17.612 51.416C17.876 51.416 18.176 51.416 18.512 51.416C18.856 51.416 19.196 51.416 19.532 51.416C19.868 51.416 20.16 51.416 20.408 51.416C20.656 51.416 20.82 51.416 20.9 51.416C21.06 51.416 21.204 51.408 21.332 51.392C21.468 51.376 21.584 51.348 21.68 51.308L22.472 51.788ZM18.452 49.976C18.356 50.136 18.26 50.304 18.164 50.48C18.068 50.656 17.988 50.8 17.924 50.912C17.692 51.352 17.396 51.828 17.036 52.34C16.676 52.844 16.244 53.348 15.74 53.852C15.244 54.348 14.676 54.808 14.036 55.232L13.196 54.62C13.716 54.308 14.18 53.976 14.588 53.624C15.004 53.264 15.364 52.9 15.668 52.532C15.98 52.164 16.244 51.812 16.46 51.476C16.676 51.132 16.848 50.828 16.976 50.564C17.04 50.46 17.108 50.316 17.18 50.132C17.26 49.94 17.316 49.764 17.348 49.604L18.452 49.976ZM35.672 50.888C35.624 50.944 35.568 51.012 35.504 51.092C35.448 51.172 35.396 51.248 35.348 51.32C35.196 51.592 34.968 51.928 34.664 52.328C34.368 52.72 34.024 53.124 33.632 53.54C33.24 53.948 32.816 54.312 32.36 54.632L31.568 53.996C31.848 53.836 32.12 53.644 32.384 53.42C32.656 53.188 32.908 52.948 33.14 52.7C33.38 52.444 33.588 52.196 33.764 51.956C33.948 51.708 34.092 51.492 34.196 51.308C34.068 51.308 33.86 51.308 33.572 51.308C33.292 51.308 32.956 51.308 32.564 51.308C32.18 51.308 31.768 51.308 31.328 51.308C30.888 51.308 30.452 51.308 30.02 51.308C29.588 51.308 29.184 51.308 28.808 51.308C28.432 51.308 28.116 51.308 27.86 51.308C27.604 51.308 27.436 51.308 27.356 51.308C27.132 51.308 26.908 51.316 26.684 51.332C26.46 51.34 26.228 51.356 25.988 51.38V50.288C26.196 50.32 26.42 50.348 26.66 50.372C26.9 50.388 27.132 50.396 27.356 50.396C27.436 50.396 27.608 50.396 27.872 50.396C28.136 50.396 28.456 50.396 28.832 50.396C29.216 50.396 29.632 50.396 30.08 50.396C30.528 50.396 30.972 50.396 31.412 50.396C31.86 50.396 32.28 50.396 32.672 50.396C33.064 50.396 33.396 50.396 33.668 50.396C33.948 50.396 34.14 50.396 34.244 50.396C34.324 50.396 34.416 50.396 34.52 50.396C34.632 50.388 34.74 50.376 34.844 50.36C34.948 50.344 35.028 50.332 35.084 50.324L35.672 50.888ZM30.884 52.472C30.884 53.12 30.864 53.728 30.824 54.296C30.784 54.864 30.704 55.396 30.584 55.892C30.464 56.388 30.28 56.848 30.032 57.272C29.792 57.688 29.468 58.08 29.06 58.448C28.652 58.808 28.144 59.14 27.536 59.444L26.648 58.724C26.816 58.668 26.996 58.596 27.188 58.508C27.38 58.412 27.56 58.304 27.728 58.184C28.2 57.904 28.576 57.588 28.856 57.236C29.136 56.884 29.344 56.504 29.48 56.096C29.624 55.68 29.72 55.244 29.768 54.788C29.824 54.324 29.852 53.844 29.852 53.348C29.852 53.196 29.848 53.052 29.84 52.916C29.84 52.78 29.828 52.632 29.804 52.472H30.884ZM42.992 49.388C42.968 49.572 42.948 49.736 42.932 49.88C42.924 50.024 42.92 50.16 42.92 50.288C42.92 50.384 42.92 50.532 42.92 50.732C42.92 50.932 42.92 51.14 42.92 51.356C42.92 51.572 42.92 51.752 42.92 51.896H41.9C41.9 51.736 41.9 51.548 41.9 51.332C41.9 51.116 41.9 50.912 41.9 50.72C41.9 50.528 41.9 50.384 41.9 50.288C41.9 50.16 41.896 50.024 41.888 49.88C41.888 49.736 41.872 49.572 41.84 49.388H42.992ZM47.084 51.716C47.052 51.804 47.02 51.92 46.988 52.064C46.956 52.2 46.928 52.324 46.904 52.436C46.872 52.676 46.82 52.944 46.748 53.24C46.684 53.536 46.604 53.848 46.508 54.176C46.412 54.496 46.3 54.816 46.172 55.136C46.044 55.448 45.896 55.752 45.728 56.048C45.432 56.568 45.052 57.048 44.588 57.488C44.124 57.928 43.588 58.312 42.98 58.64C42.38 58.968 41.712 59.236 40.976 59.444L40.196 58.544C40.396 58.512 40.604 58.468 40.82 58.412C41.044 58.348 41.252 58.28 41.444 58.208C41.844 58.08 42.248 57.9 42.656 57.668C43.064 57.428 43.444 57.152 43.796 56.84C44.156 56.52 44.456 56.172 44.696 55.796C44.912 55.452 45.096 55.076 45.248 54.668C45.408 54.26 45.536 53.848 45.632 53.432C45.728 53.016 45.796 52.636 45.836 52.292H39.128C39.128 52.42 39.128 52.584 39.128 52.784C39.128 52.984 39.128 53.196 39.128 53.42C39.128 53.636 39.128 53.84 39.128 54.032C39.128 54.216 39.128 54.352 39.128 54.44C39.128 54.552 39.132 54.676 39.14 54.812C39.148 54.948 39.16 55.064 39.176 55.16H38.132C38.148 55.048 38.156 54.92 38.156 54.776C38.164 54.632 38.168 54.504 38.168 54.392C38.168 54.296 38.168 54.152 38.168 53.96C38.168 53.768 38.168 53.564 38.168 53.348C38.168 53.124 38.168 52.916 38.168 52.724C38.168 52.532 38.168 52.384 38.168 52.28C38.168 52.152 38.164 52 38.156 51.824C38.156 51.648 38.148 51.492 38.132 51.356C38.308 51.372 38.484 51.384 38.66 51.392C38.844 51.4 39.04 51.404 39.248 51.404H45.608C45.832 51.404 46.004 51.396 46.124 51.38C46.252 51.356 46.356 51.332 46.436 51.308L47.084 51.716ZM52.544 57.944C52.544 57.832 52.544 57.608 52.544 57.272C52.544 56.928 52.544 56.524 52.544 56.06C52.544 55.588 52.544 55.096 52.544 54.584C52.544 54.064 52.544 53.56 52.544 53.072C52.544 52.584 52.544 52.152 52.544 51.776C52.544 51.4 52.544 51.128 52.544 50.96C52.544 50.792 52.536 50.588 52.52 50.348C52.504 50.108 52.48 49.896 52.448 49.712H53.624C53.608 49.888 53.588 50.096 53.564 50.336C53.548 50.576 53.54 50.784 53.54 50.96C53.54 51.272 53.54 51.648 53.54 52.088C53.54 52.52 53.54 52.984 53.54 53.48C53.54 53.968 53.54 54.456 53.54 54.944C53.548 55.424 53.552 55.876 53.552 56.3C53.552 56.716 53.552 57.072 53.552 57.368C53.552 57.656 53.552 57.848 53.552 57.944C53.552 58.072 53.552 58.22 53.552 58.388C53.56 58.556 53.572 58.728 53.588 58.904C53.604 59.072 53.616 59.224 53.624 59.36H52.46C52.492 59.168 52.512 58.94 52.52 58.676C52.536 58.412 52.544 58.168 52.544 57.944ZM53.336 52.856C53.728 52.976 54.16 53.12 54.632 53.288C55.112 53.448 55.6 53.62 56.096 53.804C56.592 53.988 57.06 54.176 57.5 54.368C57.948 54.552 58.336 54.728 58.664 54.896L58.256 55.916C57.912 55.724 57.524 55.536 57.092 55.352C56.66 55.16 56.216 54.972 55.76 54.788C55.312 54.604 54.876 54.44 54.452 54.296C54.036 54.144 53.664 54.02 53.336 53.924V52.856Z" fill="#7F5539"/>
<path d="M28.6429 18V12L38.1667 20L28.6429 28V22H11.5V18H28.6429ZM14.2771 26H18.3229C19.6525 29.4382 22.0785 32.2844 25.1859 34.0519C28.2934 35.8194 31.8892 36.3982 35.3582 35.6895C38.8272 34.9807 41.9539 33.0284 44.2035 30.1665C46.453 27.3045 47.6856 23.7108 47.6905 20C47.6924 16.2853 46.4634 12.6857 44.2141 9.81844C41.9648 6.95122 38.8355 4.99511 35.3628 4.28563C31.8901 3.57614 28.2906 4.15748 25.1815 5.92995C22.0724 7.70243 19.6476 10.5556 18.3229 14H14.2771C16.7038 5.886 23.9229 0 32.4524 0C42.9724 0 51.5 8.954 51.5 20C51.5 31.046 42.9724 40 32.4524 40C23.9229 40 16.7038 34.114 14.2771 26Z" fill="#7F5539"/>
</svg>
