<svg width="41" height="34" viewBox="0 0 41 34" fill="none" xmlns="http://www.w3.org/2000/svg">
<path d="M1.96 26.15C2.35 26.17 2.61 26.17 2.85 26.17C3.38 26.17 7.73 26.17 8.22 26.17C8.43 26.17 8.79 26.17 9.1 26.16C9.08 26.4 9.08 26.68 9.08 26.93C9.08 27.4 9.08 31.48 9.08 31.86C9.08 32.18 9.09 32.96 9.1 33.07H8.23C8.24 32.96 8.25 32.39 8.25 31.97C8.25 31.6 8.25 26.96 8.25 26.96H2.79C2.79 26.96 2.79 31.56 2.79 31.97C2.79 32.3 2.8 32.94 2.8 33.07H1.95C1.95 32.94 1.97 32.21 1.97 31.86C1.97 31.45 1.97 27.32 1.97 26.93C1.97 26.7 1.97 26.4 1.96 26.15ZM8.58 31.72V32.5H2.39V31.72H8.58ZM18.15 25C18.4 25.36 18.76 25.97 18.96 26.37L18.42 26.62C18.22 26.21 17.88 25.61 17.61 25.23L18.15 25ZM19.24 24.6C19.51 24.97 19.89 25.59 20.08 25.96L19.54 26.2C19.32 25.77 19 25.2 18.72 24.83L19.24 24.6ZM18.81 26.99C18.73 27.14 18.63 27.37 18.58 27.53C18.31 28.53 17.69 29.89 16.81 30.97C15.9 32.08 14.7 33 12.82 33.69L12.1 33.04C13.94 32.5 15.18 31.59 16.09 30.53C16.87 29.61 17.48 28.32 17.69 27.41H13.98L14.3 26.69C14.71 26.69 17.18 26.69 17.49 26.69C17.76 26.69 17.98 26.66 18.15 26.59L18.81 26.99ZM15.46 25.48C15.3 25.74 15.12 26.08 15.02 26.27C14.43 27.37 13.38 28.8 11.78 29.87L11.08 29.35C12.81 28.32 13.79 26.87 14.23 25.97C14.33 25.8 14.48 25.43 14.54 25.18L15.46 25.48ZM21.36 29.39C23.09 28.93 24.61 28.22 25.72 27.53C26.77 26.87 27.77 26.01 28.46 25.17L29.13 25.8C28.27 26.69 27.22 27.53 26.05 28.26C24.95 28.94 23.36 29.67 21.75 30.17L21.36 29.39ZM25.56 27.94L26.42 27.68V32.25C26.42 32.62 26.44 33.12 26.49 33.31H25.5C25.53 33.12 25.56 32.62 25.56 32.25V27.94ZM32.77 25.68C33.47 26.15 34.76 27.19 35.31 27.74L34.69 28.38C34.18 27.86 32.94 26.78 32.19 26.29L32.77 25.68ZM31.91 32.38C33.65 32.12 34.95 31.51 35.9 30.92C37.45 29.95 38.66 28.47 39.24 27.23L39.72 28.09C39.04 29.33 37.88 30.69 36.37 31.64C35.36 32.27 34.1 32.89 32.43 33.2L31.91 32.38Z" fill="#7F5539"/>
<path d="M18.0714 9V6L22.8333 10L18.0714 14V11H9.5V9H18.0714ZM10.8886 13H12.9114C13.5762 14.7191 14.7892 16.1422 16.343 17.0259C17.8967 17.9097 19.6946 18.1991 21.4291 17.8447C23.1636 17.4904 24.727 16.5142 25.8517 15.0832C26.9765 13.6523 27.5928 11.8554 27.5952 10C27.5962 8.14266 26.9817 6.34283 25.857 4.90922C24.7324 3.47561 23.1677 2.49756 21.4314 2.14281C19.6951 1.78807 17.8953 2.07874 16.3407 2.96498C14.7862 3.85121 13.5738 5.27778 12.9114 7H10.8886C12.1019 2.943 15.7114 0 19.9762 0C25.2362 0 29.5 4.477 29.5 10C29.5 15.523 25.2362 20 19.9762 20C15.7114 20 12.1019 17.057 10.8886 13Z" fill="#7F5539"/>
</svg>
