<svg width="25" height="24" viewBox="0 0 25 24" fill="none" xmlns="http://www.w3.org/2000/svg">
<path d="M18.125 11.5746C18.125 13.188 17.6012 14.6785 16.7188 15.8877L21.1695 20.3413C21.609 20.7807 21.609 21.4943 21.1695 21.9336C20.7301 22.373 20.0164 22.373 19.577 21.9336L15.1262 17.48C13.9168 18.3658 12.4262 18.886 10.8125 18.886C6.77305 18.886 3.5 15.6135 3.5 11.5746C3.5 7.53575 6.77305 4.26318 10.8125 4.26318C14.852 4.26318 18.125 7.53575 18.125 11.5746ZM10.8125 16.6364C11.4773 16.6364 12.1356 16.5054 12.7498 16.2511C13.364 15.9967 13.9221 15.6238 14.3922 15.1538C14.8623 14.6838 15.2352 14.1258 15.4896 13.5117C15.7441 12.8975 15.875 12.2393 15.875 11.5746C15.875 10.9099 15.7441 10.2517 15.4896 9.63756C15.2352 9.02344 14.8623 8.46544 14.3922 7.99541C13.9221 7.52538 13.364 7.15253 12.7498 6.89816C12.1356 6.64378 11.4773 6.51285 10.8125 6.51285C10.1477 6.51285 9.48938 6.64378 8.87516 6.89816C8.26095 7.15253 7.70287 7.52538 7.23277 7.99541C6.76268 8.46544 6.38977 9.02344 6.13536 9.63756C5.88095 10.2517 5.75 10.9099 5.75 11.5746C5.75 12.2393 5.88095 12.8975 6.13536 13.5117C6.38977 14.1258 6.76268 14.6838 7.23277 15.1538C7.70287 15.6238 8.26095 15.9967 8.87516 16.2511C9.48938 16.5054 10.1477 16.6364 10.8125 16.6364Z" fill="#7F5539"/>
</svg>
