<svg width="72" height="61" viewBox="0 0 72 61" fill="none" xmlns="http://www.w3.org/2000/svg">
<path d="M48.254 32.2709C46.9351 32.2709 45.9664 31.9589 45.3478 31.335C44.7292 30.7111 44.4199 29.6768 44.4199 28.232C44.4199 27.0827 44.6242 25.8459 45.0327 24.5215C45.4528 23.1971 46.1182 22.0643 47.0285 21.123C47.9506 20.1707 49.1177 19.6946 50.53 19.6946C51.4053 19.6946 52.1114 19.8752 52.6484 20.2364C53.1853 20.5976 53.4537 21.1503 53.4537 21.8946C53.4537 22.3653 53.3545 22.7374 53.1561 23.011C52.9577 23.2738 52.6484 23.4051 52.2282 23.4051C51.808 23.4051 51.4753 23.2628 51.2302 22.9782C51.4404 22.8797 51.6271 22.6827 51.7905 22.3872C51.9539 22.0916 52.0356 21.7852 52.0356 21.4677C52.0356 21.1722 51.9481 20.9314 51.773 20.7454C51.6096 20.5592 51.3411 20.4663 50.9677 20.4663C50.3491 20.4663 49.7597 20.8657 49.1994 21.6647C48.6392 22.4528 48.184 23.4488 47.8338 24.6529C47.4954 25.8569 47.3261 27.0171 47.3261 28.1335C47.3261 28.9653 47.4779 29.6002 47.7813 30.038C48.0848 30.4758 48.6333 30.6947 49.427 30.6947C50.1156 30.6947 50.7517 30.5524 51.3353 30.2678C51.9189 29.9833 52.4208 29.5783 52.8409 29.0529L53.2436 29.2171C52.9519 29.9067 52.52 30.4813 51.948 30.941C51.3762 31.4007 50.7634 31.74 50.1098 31.9589C49.4562 32.1669 48.8376 32.2709 48.254 32.2709Z" fill="#7F5539"/>
<path d="M54.7151 32.0736C54.3299 32.0736 54.0031 31.9477 53.7347 31.696C53.4663 31.4442 53.332 31.1378 53.332 30.7766C53.332 30.4154 53.4663 30.1089 53.7347 29.8571C54.0031 29.5945 54.3299 29.4631 54.7151 29.4631C55.1002 29.4631 55.4271 29.5945 55.6955 29.8571C55.9756 30.1089 56.1157 30.4154 56.1157 30.7766C56.1157 31.1378 55.9756 31.4442 55.6955 31.696C55.4271 31.9477 55.1002 32.0736 54.7151 32.0736Z" fill="#7F5539"/>
<path d="M39.341 45.867C38.0221 45.867 37.0534 45.5551 36.4347 44.9312C35.8161 44.3073 35.5068 43.2729 35.5068 41.8282C35.5068 40.6789 35.7111 39.442 36.1196 38.1177C36.5398 36.7933 37.2051 35.6605 38.1154 34.7192C39.0375 33.7669 40.2046 33.2908 41.6169 33.2908C42.4922 33.2908 43.1984 33.4714 43.7353 33.8326C44.2722 34.1938 44.5406 34.7465 44.5406 35.4908C44.5406 35.9615 44.4415 36.3335 44.243 36.6072C44.0446 36.8699 43.7353 37.0012 43.3151 37.0012C42.8949 37.0012 42.5623 36.8589 42.3172 36.5744C42.5273 36.4758 42.714 36.2788 42.8774 35.9833C43.0408 35.6878 43.1225 35.3814 43.1225 35.0639C43.1225 34.7684 43.035 34.5276 42.86 34.3415C42.6966 34.1554 42.4281 34.0624 42.0546 34.0624C41.436 34.0624 40.8466 34.4619 40.2864 35.2609C39.7261 36.049 39.271 37.045 38.9208 38.249C38.5823 39.453 38.4131 40.6132 38.4131 41.7296C38.4131 42.5615 38.5648 43.1963 38.8683 43.6342C39.1717 44.072 39.7203 44.2909 40.5139 44.2909C41.2026 44.2909 41.8387 44.1486 42.4222 43.864C43.0058 43.5794 43.5077 43.1745 43.9279 42.6491L44.3305 42.8133C44.0388 43.5028 43.6069 44.0775 43.035 44.5371C42.4631 44.9968 41.8503 45.3361 41.1967 45.555C40.5431 45.763 39.9246 45.867 39.341 45.867Z" fill="#7F5539"/>
<path d="M45.803 45.6698C45.4179 45.6698 45.0911 45.544 44.8226 45.2922C44.5541 45.0404 44.4199 44.734 44.4199 44.3728C44.4199 44.0116 44.5541 43.7052 44.8226 43.4534C45.0911 43.1907 45.4179 43.0593 45.803 43.0593C46.1882 43.0593 46.515 43.1907 46.7834 43.4534C47.0635 43.7052 47.2036 44.0116 47.2036 44.3728C47.2036 44.734 47.0635 45.0404 46.7834 45.2922C46.515 45.544 46.1882 45.6698 45.803 45.6698Z" fill="#7F5539"/>
<path d="M31.2976 60.297C30.5973 60.297 29.8854 60.007 29.1617 59.4269L29.0216 60.0836H26.5006L28.8816 49.6416L31.4727 49.3133L29.3718 58.5239C29.6986 58.7428 30.0313 58.8522 30.3697 58.8522C31.035 58.8522 31.6186 58.491 32.1204 57.7686C32.634 57.0462 33.0308 56.1268 33.3109 55.0104C33.591 53.894 33.7311 52.7666 33.7311 51.6282C33.7311 50.5556 33.5035 49.773 33.0483 49.2805C32.6048 48.777 31.9803 48.5253 31.175 48.5253C30.2997 48.5253 29.5118 48.6894 28.8116 49.0178C28.123 49.3352 27.5802 49.7949 27.1834 50.3969C26.7866 50.9989 26.5881 51.7048 26.5881 52.5148C26.5881 52.9198 26.629 53.2044 26.7107 53.3686C26.7924 53.5218 26.8332 53.6094 26.8332 53.6312C26.2264 53.6312 25.7595 53.5109 25.4327 53.2701C25.1175 53.0292 24.96 52.6407 24.96 52.1044C24.96 51.3601 25.2576 50.6541 25.8528 49.9865C26.4481 49.3188 27.2418 48.7825 28.2338 48.3774C29.2376 47.9725 30.3172 47.77 31.4727 47.77C33.0717 47.77 34.2505 48.2133 35.0091 49.0999C35.7678 49.9865 36.1471 51.1193 36.1471 52.4984C36.1471 53.7462 35.9195 54.9775 35.4643 56.1925C35.0208 57.3965 34.4256 58.3816 33.6786 59.1478C32.9316 59.9139 32.1379 60.297 31.2976 60.297Z" fill="#7F5539"/>
<path d="M39.0199 60.1493C38.1562 60.1493 37.4735 59.9413 36.9716 59.5254C36.4697 59.1095 36.2188 58.4528 36.2188 57.5552C36.2188 56.8109 36.3821 55.9845 36.7089 55.0761C37.0357 54.1676 37.561 53.3851 38.2846 52.7283C39.0082 52.0607 39.9186 51.7268 41.0157 51.7268C42.5097 51.7268 43.2567 52.6024 43.2567 54.3537V54.3701C43.2917 54.3811 43.3559 54.3865 43.4493 54.3865C43.8344 54.3865 44.2779 54.2935 44.7798 54.1074C45.2817 53.9104 45.7369 53.6751 46.1454 53.4014L46.303 53.8447C45.9645 54.1841 45.5209 54.4741 44.9724 54.7149C44.4355 54.9448 43.8461 55.1089 43.2042 55.2074C43.1108 56.2034 42.8715 57.0737 42.4864 57.8179C42.1012 58.5622 41.6052 59.1369 40.9982 59.5418C40.3913 59.9468 39.7318 60.1493 39.0199 60.1493ZM39.7202 58.6717C40.0003 58.6717 40.2804 58.5239 40.5606 58.2284C40.8406 57.9219 41.0858 57.5115 41.2959 56.997C41.506 56.4716 41.6577 55.8916 41.7511 55.2567C41.4359 55.191 41.2784 54.9612 41.2784 54.5672C41.2784 54.1184 41.4593 53.8229 41.8211 53.6806C41.7977 53.3194 41.7394 53.0731 41.646 52.9418C41.5526 52.7995 41.3892 52.7283 41.1558 52.7283C40.7706 52.7283 40.3972 52.991 40.0353 53.5164C39.6735 54.0418 39.3818 54.6711 39.16 55.4044C38.9382 56.1378 38.8274 56.7836 38.8274 57.3418C38.8274 57.8672 38.8915 58.2229 39.0199 58.409C39.1483 58.5841 39.3818 58.6717 39.7202 58.6717Z" fill="#7F5539"/>
<path d="M50.4766 60.1818C49.7646 60.1818 49.2394 60.0067 48.9009 59.6565C48.5741 59.2953 48.4107 58.852 48.4107 58.3266C48.4107 58.0967 48.4399 57.8395 48.4982 57.5549C48.5566 57.2594 48.615 56.9748 48.6733 56.7012C48.7434 56.4275 48.7901 56.2524 48.8134 56.1758C48.9068 55.7927 48.9943 55.4151 49.076 55.0429C49.1577 54.6708 49.1986 54.3698 49.1986 54.1399C49.1986 53.5818 48.9885 53.3027 48.5683 53.3027C48.2648 53.3027 47.9964 53.4449 47.763 53.7295C47.5295 54.0031 47.3428 54.3643 47.2027 54.8131L46.0122 60.0833H43.4912L45.347 51.8743H47.868L47.6755 52.728C48.259 52.1151 48.9418 51.8086 49.7238 51.8086C50.319 51.8086 50.7917 51.9618 51.1419 52.2683C51.492 52.5748 51.6671 53.0399 51.6671 53.6638C51.6671 53.9813 51.6263 54.337 51.5446 54.731C51.4628 55.1141 51.3461 55.5848 51.1944 56.143C51.101 56.4823 51.0135 56.8161 50.9318 57.1445C50.8618 57.4619 50.8268 57.7136 50.8268 57.8997C50.8268 58.1186 50.8792 58.2883 50.9843 58.4087C51.0894 58.5291 51.2702 58.5893 51.527 58.5893C51.8772 58.5893 52.1573 58.4744 52.3674 58.2445C52.5775 58.0037 52.7875 57.637 52.9977 57.1445H53.7329C53.3011 58.3484 52.7992 59.1584 52.2273 59.5744C51.6671 59.9793 51.0836 60.1818 50.4766 60.1818Z" fill="#7F5539"/>
<path d="M54.7298 60.1816C54.1695 60.1816 53.7143 60.0174 53.3642 59.689C53.0257 59.3607 52.8564 58.8681 52.8564 58.2114C52.8564 57.9378 52.9032 57.5821 52.9965 57.1443L54.187 51.874H56.7081L55.4476 57.4561C55.4125 57.6203 55.395 57.7736 55.395 57.9159C55.395 58.3646 55.5701 58.589 55.9203 58.589C56.2471 58.589 56.5271 58.4632 56.7606 58.2114C56.994 57.9487 57.1808 57.593 57.3208 57.1443L58.5113 51.874H61.0324L59.7718 57.4561C59.7252 57.6203 59.7018 57.7955 59.7018 57.9815C59.7018 58.2004 59.7543 58.3592 59.8594 58.4577C59.9761 58.5453 60.1628 58.589 60.4196 58.589C60.7464 58.589 61.0265 58.4577 61.26 58.195C61.5051 57.9323 61.6977 57.5821 61.8377 57.1443H62.573C62.1412 58.3264 61.6043 59.1308 60.9623 59.5577C60.3321 59.9736 59.696 60.1816 59.054 60.1816C58.5522 60.1816 58.1495 60.0502 57.846 59.7876C57.5542 59.5248 57.3792 59.1363 57.3208 58.6219C56.924 59.2239 56.5038 59.6343 56.0603 59.8532C55.6284 60.0721 55.1849 60.1816 54.7298 60.1816Z" fill="#7F5539"/>
<path d="M63.5686 60.1824C63.0084 60.1824 62.5532 60.0182 62.2031 59.6898C61.8646 59.3615 61.6953 58.8689 61.6953 58.2122C61.6953 57.9386 61.742 57.5829 61.8354 57.1451L62.8858 52.5315H62.3081L62.4481 51.8748H63.0259L63.5511 49.6091L66.1421 49.2808L65.5466 51.8748H66.5972L66.4574 52.5315H65.4068L64.2867 57.457C64.2395 57.6211 64.2165 57.7963 64.2165 57.9823C64.2165 58.2012 64.2688 58.36 64.3741 58.4585C64.4909 58.5461 64.6773 58.5898 64.9339 58.5898C65.2728 58.5898 65.5875 58.4585 65.8798 58.1958C66.1715 57.9222 66.3815 57.5719 66.5098 57.1451H67.2451C66.8136 58.3272 66.2589 59.1316 65.5817 59.5585C64.9052 59.9744 64.2337 60.1824 63.5686 60.1824Z" fill="#7F5539"/>
<path d="M68.4987 60.1818C67.9383 60.1818 67.4659 60.0832 67.0804 59.8862C66.6955 59.6782 66.4096 59.4156 66.2226 59.0981C66.0362 58.7698 65.9424 58.4305 65.9424 58.0802C65.9424 57.719 66.0362 57.4071 66.2226 57.1444C66.3981 56.8707 66.6138 56.6737 66.8704 56.5534C67.3255 55.7872 67.7225 55.0155 68.0608 54.2384C68.3997 53.4503 68.7208 52.602 69.0239 51.6936L71.6153 51.3652C71.6734 52.7662 71.7723 54.2822 71.9128 55.913C71.9708 56.5698 72.0002 57.0459 72.0002 57.3414C72.0002 58.0091 71.8196 58.5564 71.4577 58.9832C71.0958 59.4101 70.6464 59.7166 70.1096 59.9026C69.5843 60.0887 69.0476 60.1818 68.4987 60.1818ZM67.9383 58.8847C68.3704 58.8847 68.7323 58.7643 69.0239 58.5235C69.3156 58.2827 69.4618 57.8942 69.4618 57.3578C69.4618 57.0295 69.4267 56.5698 69.3565 55.9787C69.2397 54.7309 69.1637 53.8936 69.1293 53.4668C68.8491 54.3314 68.3761 55.3658 67.711 56.5697C67.9791 56.7011 68.1138 56.8927 68.1138 57.1444C68.1138 57.3524 68.0378 57.5384 67.8859 57.7026C67.7461 57.8668 67.5649 57.9489 67.3434 57.9489C67.0983 57.9489 66.9406 57.8778 66.8704 57.7355C66.8704 58.1295 66.9521 58.4195 67.1155 58.6056C67.2904 58.7917 67.5649 58.8847 67.9383 58.8847Z" fill="#7F5539"/>
<path d="M41.6494 21.302C38.3867 19.4855 34.4839 18.9524 30.7998 19.8198C27.1156 20.6873 23.9518 22.8843 22.0043 25.9275C20.0569 28.9708 19.4853 32.611 20.4153 36.0474C21.3453 39.4837 23.7007 42.4347 26.9634 44.2512L34.3064 32.7766L41.6494 21.302Z" fill="#E8C2CA"/>
<path d="M22.8447 50.5195C20.3266 49.1311 18.1281 47.2915 16.3756 45.1069C14.6233 42.9223 13.3517 40.4358 12.6342 37.7907C11.9168 35.1457 11.7676 32.3943 12.1953 29.6953C12.6231 26.9962 13.6192 24.4027 15.1264 22.0644C16.6335 19.726 18.6219 17.689 20.9769 16.0706C23.332 14.4523 26.0071 13.2846 28.8481 12.635C31.6891 11.9854 34.6399 11.8665 37.5304 12.2854C40.4209 12.7043 43.1939 13.6526 45.6897 15.0757L41.8235 20.9749C40.1622 20.0276 38.3164 19.3964 36.3923 19.1176C34.4683 18.8388 32.5042 18.9178 30.6131 19.3503C28.722 19.7827 26.9414 20.5599 25.3738 21.6372C23.8061 22.7144 22.4826 24.0703 21.4794 25.6268C20.4761 27.1833 19.813 28.9096 19.5284 30.7063C19.2436 32.5029 19.343 34.3343 19.8205 36.0949C20.2981 37.8556 21.1445 39.5107 22.311 40.9648C23.4774 42.419 24.9409 43.6434 26.617 44.5677L22.8447 50.5195Z" fill="#D1B3C4"/>
<path d="M16.74 60.3153C8.92761 55.9637 3.28537 48.8987 1.05146 40.671C-1.18245 32.4433 0.174453 23.725 4.82439 16.4293C9.47435 9.13377 17.0375 3.85683 25.8539 1.75663C34.6705 -0.343568 44.0201 0.904522 51.8512 5.22701L46.0011 14.4478C40.7885 11.5705 34.565 10.7398 28.6964 12.1377C22.8278 13.5357 17.7935 17.0483 14.6983 21.9045C11.6031 26.7607 10.6999 32.564 12.1869 38.0406C13.6738 43.5173 17.4295 48.22 22.6297 51.1168L16.74 60.3153Z" fill="#B392AC"/>
</svg>
