<svg width="59" height="52" viewBox="0 0 59 52" fill="none" xmlns="http://www.w3.org/2000/svg">
<path d="M39.5078 27.4685C38.428 27.4685 37.6348 27.1966 37.1284 26.6527C36.6219 26.1089 36.3687 25.2073 36.3687 23.9478C36.3687 22.946 36.5359 21.8679 36.8703 20.7134C37.2144 19.5589 37.7591 18.5714 38.5045 17.7508C39.2594 16.9207 40.215 16.5057 41.3713 16.5057C42.088 16.5057 42.6661 16.6631 43.1057 16.978C43.5453 17.2928 43.7651 17.7746 43.7651 18.4234C43.7651 18.8337 43.6839 19.1581 43.5214 19.3967C43.359 19.6257 43.1057 19.7402 42.7617 19.7402C42.4177 19.7402 42.1453 19.6161 41.9446 19.3681C42.1167 19.2822 42.2696 19.1105 42.4034 18.8528C42.5372 18.5952 42.604 18.3281 42.604 18.0514C42.604 17.7937 42.5323 17.5838 42.389 17.4216C42.2552 17.2594 42.0354 17.1784 41.7297 17.1784C41.2232 17.1784 40.7406 17.5266 40.2819 18.2231C39.8232 18.9101 39.4505 19.7783 39.1638 20.8279C38.8867 21.8774 38.7481 22.8888 38.7481 23.862C38.7481 24.5871 38.8724 25.1405 39.1208 25.5221C39.3693 25.9038 39.8184 26.0946 40.4682 26.0946C41.0321 26.0946 41.5529 25.9706 42.0307 25.7225C42.5085 25.4744 42.9194 25.1214 43.2634 24.6634L43.5931 24.8065C43.3542 25.4076 43.0006 25.9085 42.5323 26.3093C42.0641 26.71 41.5624 27.0058 41.0273 27.1966C40.4921 27.3779 39.9856 27.4685 39.5078 27.4685Z" fill="#7F5539"/>
<path d="M44.7984 27.2968C44.483 27.2968 44.2155 27.1871 43.9957 26.9677C43.7759 26.7482 43.666 26.481 43.666 26.1662C43.666 25.8513 43.7759 25.5842 43.9957 25.3647C44.2155 25.1357 44.483 25.0212 44.7984 25.0212C45.1137 25.0212 45.3814 25.1357 45.6011 25.3647C45.8305 25.5842 45.9452 25.8513 45.9452 26.1662C45.9452 26.481 45.8305 26.7482 45.6011 26.9677C45.3814 27.1871 45.1137 27.2968 44.7984 27.2968Z" fill="#7F5539"/>
<path d="M32.211 39.3202C31.1311 39.3202 30.338 39.0483 29.8315 38.5044C29.325 37.9605 29.0718 37.0589 29.0718 35.7995C29.0718 34.7977 29.2391 33.7195 29.5735 32.565C29.9175 31.4105 30.4622 30.423 31.2076 29.6025C31.9625 28.7724 32.9181 28.3574 34.0744 28.3574C34.7911 28.3574 35.3693 28.5148 35.8089 28.8297C36.2485 29.1445 36.4683 29.6263 36.4683 30.2751C36.4683 30.6854 36.387 31.0098 36.2246 31.2483C36.0621 31.4773 35.8089 31.5918 35.4648 31.5918C35.1208 31.5918 34.8485 31.4678 34.6478 31.2197C34.8198 31.1338 34.9727 30.9621 35.1065 30.7045C35.2403 30.4469 35.3072 30.1797 35.3072 29.903C35.3072 29.6454 35.2355 29.4355 35.0922 29.2733C34.9584 29.1111 34.7386 29.03 34.4328 29.03C33.9263 29.03 33.4437 29.3783 32.9851 30.0748C32.5263 30.7618 32.1537 31.63 31.867 32.6795C31.5899 33.729 31.4513 34.7404 31.4513 35.7136C31.4513 36.4387 31.5755 36.9921 31.824 37.3738C32.0724 37.7555 32.5216 37.9463 33.1714 37.9463C33.7352 37.9463 34.256 37.8222 34.7338 37.5741C35.2116 37.3261 35.6226 36.9731 35.9666 36.5151L36.2962 36.6582C36.0573 37.2593 35.7038 37.7602 35.2355 38.1609C34.7672 38.5617 34.2656 38.8574 33.7304 39.0482C33.1952 39.2296 32.6888 39.3202 32.211 39.3202Z" fill="#7F5539"/>
<path d="M37.501 39.1484C37.1857 39.1484 36.9181 39.0387 36.6984 38.8192C36.4786 38.5998 36.3687 38.3326 36.3687 38.0178C36.3687 37.7029 36.4786 37.4358 36.6984 37.2163C36.9181 36.9873 37.1857 36.8728 37.501 36.8728C37.8164 36.8728 38.084 36.9873 38.3038 37.2163C38.5331 37.4358 38.6478 37.7029 38.6478 38.0178C38.6478 38.3326 38.5331 38.5998 38.3038 38.8192C38.084 39.0387 37.8164 39.1484 37.501 39.1484Z" fill="#7F5539"/>
<path d="M25.625 51.8989C25.0516 51.8989 24.4687 51.6461 23.8762 51.1404L23.7616 51.7129H21.6975L23.6469 42.6105L25.7683 42.3243L24.0483 50.3532C24.3158 50.544 24.5882 50.6395 24.8653 50.6395C25.41 50.6395 25.8878 50.3246 26.2987 49.6949C26.7192 49.0652 27.0441 48.2637 27.2735 47.2905C27.5028 46.3173 27.6175 45.3345 27.6175 44.3422C27.6175 43.4072 27.4311 42.7251 27.0584 42.2957C26.6953 41.8568 26.184 41.6374 25.5247 41.6374C24.8079 41.6374 24.1629 41.7804 23.5896 42.0667C23.0258 42.3434 22.5814 42.7441 22.2565 43.2689C21.9316 43.7936 21.7691 44.409 21.7691 45.1151C21.7691 45.4681 21.8025 45.7162 21.8694 45.8593C21.9363 45.9929 21.9698 46.0692 21.9698 46.0883C21.4729 46.0883 21.0906 45.9834 20.8231 45.7734C20.5651 45.5635 20.436 45.2248 20.436 44.7573C20.436 44.1085 20.6797 43.4931 21.1671 42.9111C21.6544 42.3291 22.3043 41.8616 23.1165 41.5085C23.9384 41.1555 24.8223 40.979 25.7683 40.979C27.0775 40.979 28.0427 41.3654 28.6638 42.1383C29.285 42.9111 29.5956 43.8986 29.5956 45.1008C29.5956 46.1885 29.4092 47.2619 29.0366 48.321C28.6734 49.3705 28.186 50.2292 27.5745 50.8971C26.9629 51.5649 26.313 51.8989 25.625 51.8989Z" fill="#7F5539"/>
<path d="M31.9473 51.7701C31.2401 51.7701 30.6811 51.5889 30.2702 51.2263C29.8592 50.8637 29.6538 50.2912 29.6538 49.5089C29.6538 48.86 29.7876 48.1397 30.0552 47.3478C30.3227 46.5559 30.7528 45.8737 31.3453 45.3012C31.9377 44.7192 32.6831 44.4282 33.5814 44.4282C34.8046 44.4282 35.4162 45.1915 35.4162 46.7181V46.7324C35.4448 46.7419 35.4974 46.7467 35.5738 46.7467C35.8892 46.7467 36.2523 46.6656 36.6632 46.5034C37.0741 46.3317 37.4468 46.1265 37.7813 45.8879L37.9103 46.2744C37.6332 46.5702 37.27 46.823 36.8209 47.0329C36.3813 47.2333 35.8987 47.3764 35.3731 47.4623C35.2967 48.3305 35.1008 49.0891 34.7855 49.7379C34.4701 50.3866 34.064 50.8876 33.567 51.2406C33.0701 51.5936 32.5302 51.7701 31.9473 51.7701ZM32.5207 50.4821C32.75 50.4821 32.9793 50.3533 33.2087 50.0956C33.438 49.8285 33.6387 49.4707 33.8107 49.0223C33.9828 48.5643 34.107 48.0586 34.1834 47.5052C33.9254 47.4479 33.7964 47.2476 33.7964 46.9041C33.7964 46.5129 33.9445 46.2553 34.2408 46.1313C34.2216 45.8164 34.1739 45.6017 34.0974 45.4873C34.021 45.3632 33.8872 45.3012 33.6961 45.3012C33.3807 45.3012 33.0749 45.5302 32.7787 45.9882C32.4824 46.4461 32.2435 46.9947 32.0619 47.634C31.8804 48.2733 31.7896 48.8362 31.7896 49.3228C31.7896 49.7808 31.8421 50.0909 31.9473 50.2531C32.0524 50.4057 32.2435 50.4821 32.5207 50.4821Z" fill="#7F5539"/>
<path d="M41.3287 51.7987C40.7458 51.7987 40.3157 51.6461 40.0386 51.3408C39.771 51.0259 39.6373 50.6395 39.6373 50.1815C39.6373 49.9811 39.6611 49.7569 39.7089 49.5088C39.7567 49.2512 39.8045 49.0031 39.8523 48.7646C39.9096 48.5261 39.9478 48.3734 39.967 48.3066C40.0434 47.9727 40.1151 47.6435 40.182 47.3191C40.2488 46.9947 40.2823 46.7323 40.2823 46.532C40.2823 46.0454 40.1103 45.8021 39.7663 45.8021C39.5178 45.8021 39.298 45.9261 39.1069 46.1742C38.9158 46.4127 38.7629 46.7275 38.6482 47.1187L37.6735 51.7129H35.6094L37.1288 44.5569H39.1929L39.0352 45.3012C39.513 44.7669 40.0721 44.4997 40.7123 44.4997C41.1997 44.4997 41.5867 44.6333 41.8734 44.9004C42.1601 45.1676 42.3034 45.5731 42.3034 46.1169C42.3034 46.3936 42.27 46.7037 42.2031 47.0472C42.1362 47.3811 42.0406 47.7914 41.9164 48.278C41.84 48.5738 41.7683 48.8648 41.7014 49.1511C41.644 49.4277 41.6154 49.6472 41.6154 49.8094C41.6154 50.0002 41.6584 50.1481 41.7444 50.2531C41.8304 50.358 41.9785 50.4105 42.1887 50.4105C42.4754 50.4105 42.7048 50.3103 42.8768 50.1099C43.0488 49.9 43.2208 49.5804 43.3928 49.1511H43.9948C43.6413 50.2005 43.2304 50.9066 42.7621 51.2692C42.3034 51.6222 41.8256 51.7987 41.3287 51.7987Z" fill="#7F5539"/>
<path d="M44.8102 51.7988C44.3514 51.7988 43.9788 51.6556 43.6921 51.3694C43.415 51.0832 43.2764 50.6538 43.2764 50.0813C43.2764 49.8428 43.3146 49.5327 43.3911 49.1511L44.3658 44.5569H46.4299L45.3979 49.4229C45.3692 49.5661 45.3548 49.6997 45.3548 49.8237C45.3548 50.2149 45.4982 50.4105 45.7849 50.4105C46.0524 50.4105 46.2818 50.3008 46.4729 50.0813C46.664 49.8523 46.8169 49.5423 46.9316 49.1511L47.9063 44.5569H49.9704L48.9384 49.4229C48.9002 49.5661 48.8811 49.7187 48.8811 49.8809C48.8811 50.0717 48.9241 50.2101 49.0101 50.296C49.1056 50.3723 49.2585 50.4105 49.4688 50.4105C49.7363 50.4105 49.9657 50.296 50.1568 50.067C50.3575 49.838 50.5152 49.5327 50.6298 49.1511H51.2319C50.8783 50.1815 50.4387 50.8828 49.9131 51.2549C49.3971 51.6174 48.8763 51.7988 48.3507 51.7988C47.9398 51.7988 47.6101 51.6842 47.3616 51.4552C47.1227 51.2262 46.9794 50.8876 46.9316 50.4391C46.6067 50.9639 46.2627 51.3217 45.8995 51.5125C45.546 51.7033 45.1828 51.7988 44.8102 51.7988Z" fill="#7F5539"/>
<path d="M52.047 51.7987C51.5883 51.7987 51.2156 51.6556 50.9289 51.3693C50.6518 51.0831 50.5132 50.6537 50.5132 50.0813C50.5132 49.8428 50.5514 49.5327 50.6279 49.151L51.4879 45.1294H51.0149L51.1296 44.5569H51.6026L52.0326 42.5819L54.154 42.2957L53.6665 44.5569H54.5266L54.4122 45.1294H53.552L52.6349 49.4229C52.5962 49.5661 52.5774 49.7187 52.5774 49.8809C52.5774 50.0717 52.6203 50.2101 52.7065 50.296C52.8021 50.3723 52.9547 50.4105 53.1648 50.4105C53.4423 50.4105 53.6999 50.296 53.9393 50.067C54.1781 49.8284 54.35 49.5231 54.4551 49.151H55.0571C54.7038 50.1815 54.2497 50.8828 53.6952 51.2549C53.1413 51.6174 52.5915 51.7987 52.047 51.7987Z" fill="#7F5539"/>
<path d="M56.0837 51.7987C55.6249 51.7987 55.2381 51.7129 54.9225 51.5411C54.6074 51.3598 54.3733 51.1308 54.2201 50.8541C54.0675 50.5679 53.9907 50.2721 53.9907 49.9668C53.9907 49.652 54.0675 49.38 54.2201 49.1511C54.3639 48.9125 54.5405 48.7408 54.7506 48.6358C55.1232 47.9679 55.4482 47.2953 55.7252 46.6178C56.0027 45.9309 56.2655 45.1914 56.5138 44.3995L58.6355 44.1133C58.683 45.3346 58.764 46.656 58.879 48.0776C58.9266 48.6502 58.9506 49.0652 58.9506 49.3228C58.9506 49.9048 58.8027 50.3819 58.5064 50.754C58.2101 51.1261 57.8422 51.3932 57.4027 51.5554C56.9726 51.7176 56.5331 51.7987 56.0837 51.7987ZM55.6249 50.6681C55.9786 50.6681 56.2749 50.5631 56.5138 50.3532C56.7526 50.1433 56.8723 49.8046 56.8723 49.3371C56.8723 49.0508 56.8435 48.6502 56.786 48.1349C56.6904 47.0472 56.6282 46.3173 56.6 45.9452C56.3706 46.699 55.9833 47.6006 55.4388 48.6501C55.6583 48.7646 55.7686 48.9316 55.7686 49.1511C55.7686 49.3323 55.7064 49.4945 55.582 49.6376C55.4676 49.7808 55.3191 49.8523 55.1378 49.8523C54.9371 49.8523 54.808 49.7903 54.7506 49.6663C54.7506 50.0097 54.8175 50.2626 54.9512 50.4248C55.0944 50.587 55.3191 50.6681 55.6249 50.6681Z" fill="#7F5539"/>
<path d="M34.1007 17.9064C31.4294 16.3229 28.234 15.8582 25.2176 16.6144C22.2011 17.3705 19.6108 19.2857 18.0163 21.9385C16.4217 24.5914 15.9538 27.7646 16.7152 30.7601C17.4767 33.7556 19.4052 36.328 22.0765 37.9114L28.0886 27.9089L34.1007 17.9064Z" fill="#E8C2CA"/>
<path d="M18.7039 43.3759C16.6422 42.1656 14.8421 40.562 13.4073 38.6577C11.9726 36.7533 10.9315 34.5858 10.344 32.2801C9.75658 29.9744 9.63445 27.576 9.98464 25.2232C10.3349 22.8704 11.1505 20.6096 12.3845 18.5713C13.6184 16.5329 15.2465 14.7572 17.1746 13.3465C19.1029 11.9358 21.2931 10.9179 23.6192 10.3516C25.9453 9.78533 28.3613 9.68174 30.7279 10.0469C33.0945 10.412 35.3649 11.2387 37.4083 12.4792L34.2429 17.6216C32.8827 16.7958 31.3714 16.2456 29.7961 16.0025C28.2208 15.7595 26.6127 15.8284 25.0643 16.2054C23.516 16.5823 22.0581 17.2598 20.7746 18.1989C19.4911 19.1379 18.4074 20.3199 17.586 21.6767C16.7646 23.0335 16.2217 24.5384 15.9886 26.1045C15.7555 27.6706 15.8368 29.2671 16.2278 30.8018C16.6188 32.3366 17.3118 33.7794 18.2669 35.047C19.2219 36.3146 20.4202 37.382 21.7925 38.1877L18.7039 43.3759Z" fill="#D1B3C4"/>
<path d="M13.7059 51.915C7.30953 48.1216 2.68991 41.963 0.860886 34.7908C-0.96814 27.6186 0.142834 20.0188 3.95 13.6591C7.75717 7.29949 13.9495 2.69953 21.168 0.868764C28.3866 -0.962 36.0417 0.125972 42.4535 3.89393L37.6637 11.9317C33.3958 9.42365 28.3003 8.69944 23.4953 9.91807C18.6904 11.1367 14.5685 14.1986 12.0343 18.4318C9.5001 22.6651 8.76059 27.7238 9.97806 32.4979C11.1955 37.272 14.2705 41.3714 18.5282 43.8965L13.7059 51.915Z" fill="#B392AC"/>
</svg>
